#!OML:ASF G:\ViconDB\ViconDB\414\test\team2\shane.ASF
:FULLY-SPECIFIED
:DEGREES
126
root 4.754 16.0058 -16.2649 -5.19039 5.55908 -6.8886
lowerback 4.38703 -5.78136 0.882641
upperback 2.66312 -7.7278 8.1112
thorax 1.35106 -3.98554 8.19535
lowerneck -16.1137 -1.72641 -5.98612
upperneck 20.2262 -1.77637 3.99784
head 9.10112 -0.862592 2.14392
rclavicle -1.59028e-014 4.92986e-014
rhumerus -47.0158 -21.9481 -62.7552
rradius 21.3581
rwrist 51.5889
rhand -30.6002 -16.0843
rfingers 7.12502
rthumb -3.8971 -46.0284
lclavicle -1.59028e-014 4.92986e-014
lhumerus -20.7013 -16.9674 98.6411
lradius 32.5476
lwrist -15.4555
lhand -42.9866 7.4023
lfingers 7.12502
lthumb -15.8454 36.7739
rfemur -22.4125 -17.5895 24.5526
rtibia 51.8504
rfoot -23.5192 2.67448
rtoes -8.58087
lfemur 24.4748 -4.60488 -5.41285
ltibia 33.0397
lfoot -9.60047 -16.1798
ltoes -29.0123
127
root 4.71331 16.0379 -16.0977 -5.09552 5.73622 -7.06336
lowerback 4.48577 -5.65974 1.06326
upperback 2.73108 -7.55451 8.14563
thorax 1.32433 -3.89486 8.13717
lowerneck -16.268 -1.8503 -5.83743
upperneck 19.7749 -1.96215 3.98383
head 8.9825 -0.934215 2.08596
rclavicle 1.14997e-013 -5.88403e-014
rhumerus -46.0329 -21.7202 -64.2171
rradius 21.6035
rwrist 51.0482
rhand -30.8076 -16.0115
rfingers 7.12502
rthumb -4.09732 -45.9518
lclavicle 1.14997e-013 -5.88403e-014
lhumerus -21.1231 -16.768 98.8239
lradius 31.122
lwrist -15.1297
lhand -42.5666 7.41113
lfingers 7.12502
lthumb -15.441 36.8144
rfemur -21.6224 -17.982 24.8369
rtibia 51.4646
rfoot -24.0572 2.52499
rtoes -9.09401
lfemur 21.6155 -4.18314 -4.61124
ltibia 38.1972
lfoot -7.119 -16.4539
ltoes -25.3191
128
root 4.67322 16.0575 -15.9343 -5.16811 5.71559 -7.33797
lowerback 4.71947 -5.46516 1.33293
upperback 2.90734 -7.27925 8.2019
thorax 1.31488 -3.7534 8.05954
lowerneck -16.5511 -2.00153 -5.71833
upperneck 19.3851 -2.15559 3.89845
head 8.90866 -1.01915 2.00812
rclavicle 8.52786e-014 -5.40694e-014
rhumerus -44.7543 -21.0647 -65.9663
rradius 21.8709
rwrist 50.1103
rhand -30.8352 -15.9634
rfingers 7.12502
rthumb -4.12402 -45.9032
lclavicle 8.52786e-014 -5.40694e-014
lhumerus -21.5256 -17.1039 99.0147
lradius 29.9275
lwrist -14.5339
lhand -42.105 7.45276
lfingers 7.12502
lthumb -14.9963 36.8897
rfemur -20.6537 -18.1158 25.1966
rtibia 51.1085
rfoot -24.6936 2.39242
rtoes -8.40744
lfemur 19.1289 -3.56388 -3.72821
ltibia 42.9956
lfoot -5.01748 -16.6715
ltoes -19.8634
129
root 4.63398 16.0741 -15.7748 -5.1281 5.91064 -7.5756
lowerback 4.8848 -5.34913 1.60025
upperback 2.97687 -7.10368 8.21994
thorax 1.24157 -3.65842 7.94029
lowerneck -16.5809 -2.15725 -5.68083
upperneck 18.85 -2.37141 3.92987
head 8.74249 -1.11046 1.98091
rclavicle 9.54166e-014 -2.06736e-014
rhumerus -43.4838 -20.2329 -67.848
rradius 22.1041
rwrist 48.5531
rhand -30.9575 -15.848
rfingers 7.12502
rthumb -4.24205 -45.7855
lclavicle 9.54166e-014 -2.06736e-014
lhumerus -21.9181 -17.0257 99.0942
lradius 28.5676
lwrist -14.6719
lhand -41.5142 7.34893
lfingers 7.12502
lthumb -14.4271 36.8275
rfemur -19.8696 -18.3655 25.5198
rtibia 50.8022
rfoot -25.3019 2.2193
rtoes -8.0788
lfemur 16.5764 -3.19215 -2.87381
ltibia 47.4687
lfoot -3.84885 -16.8279
ltoes -15.1085
130
root 4.59843 16.0813 -15.6174 -5.17513 5.97687 -7.76291
lowerback 5.0711 -5.13752 1.95109
upperback 3.19701 -6.80468 8.14815
thorax 1.27827 -3.50052 7.66734
lowerneck -16.9712 -2.3186 -5.40456
upperneck 18.4651 -2.62601 3.89589
head 8.69063 -1.20737 1.88715
rclavicle 3.04141e-014 -2.06736e-014
rhumerus -42.1074 -19.5653 -69.6833
rradius 22.5018
rwrist 47.9389
rhand -30.8607 -15.9821
rfingers 7.12502
rthumb -4.14866 -45.9214
lclavicle 3.04141e-014 -2.06736e-014
lhumerus -22.113 -17.52 99.0744
lradius 27.3321
lwrist -14.4899
lhand -40.9673 7.59229
lfingers 7.12502
lthumb -13.9001 37.1077
rfemur -19.0416 -18.6676 25.742
rtibia 50.5737
rfoot -25.8781 2.18099
rtoes -8.27401
lfemur 14.2948 -2.82072 -2.26222
ltibia 51.5618
lfoot -3.69451 -16.3512
ltoes -10.9616
131
root 4.56092 16.0888 -15.454 -5.28829 5.96988 -7.70769
lowerback 5.33355 -4.89354 1.87651
upperback 3.32387 -6.47007 8.09008
thorax 1.22508 -3.33266 7.65877
lowerneck -16.9305 -2.48019 -5.4085
upperneck 17.9952 -2.86067 4.00916
head 8.53744 -1.30458 1.89407
rclavicle 1.55052e-014 -1.11319e-014
rhumerus -40.952 -18.4233 -71.3955
rradius 23.1336
rwrist 46.7979
rhand -30.4272 -15.7696
rfingers 7.12502
rthumb -3.72999 -45.7167
lclavicle 1.55052e-014 -1.11319e-014
lhumerus -22.4242 -17.173 99.0444
lradius 26.0013
lwrist -15.2132
lhand -40.4217 7.10361
lfingers 7.12502
lthumb -13.3742 36.6544
rfemur -18.1192 -18.7214 25.6968
rtibia 50.3719
rfoot -26.3402 1.92302
rtoes -8.45172
lfemur 12.1936 -2.24732 -1.91368
ltibia 55.326
lfoot -5.02728 -15.3739
ltoes -9.83697
132
root 4.52161 16.0881 -15.2928 -5.44313 5.90676 -7.84069
lowerback 5.53641 -4.63715 2.0272
upperback 3.53462 -6.11846 7.97178
thorax 1.25919 -3.15166 7.44553
lowerneck -16.9592 -2.6416 -5.22967
upperneck 17.4755 -3.14159 4.14861
head 8.38056 -1.40846 1.87377
rclavicle 1.90833e-014 -2.38542e-014
rhumerus -39.4393 -17.7096 -73.0852
rradius 23.2745
rwrist 45.2178
rhand -30.5193 -15.3224
rfingers 7.12502
rthumb -3.81892 -45.2679
lclavicle 1.90833e-014 -2.38542e-014
lhumerus -22.7401 -17.5473 98.8464
lradius 24.8134
lwrist -15.6782
lhand -39.6341 6.71053
lfingers 7.12502
lthumb -12.6151 36.3096
rfemur -17.2459 -18.8545 25.8591
rtibia 50.2126
rfoot -26.7935 1.82948
rtoes -8.29069
lfemur 10.3136 -2.03092 -1.48638
ltibia 58.7286
lfoot -6.79148 -14.0809
ltoes -10.1195
133
root 4.48134 16.092 -15.1344 -5.59944 5.89124 -8.09371
lowerback 5.80243 -4.43629 2.2451
upperback 3.68334 -5.82917 7.99412
thorax 1.21362 -3.00185 7.3552
lowerneck -16.849 -2.7908 -5.27732
upperneck 16.9178 -3.34907 4.28064
head 8.1874 -1.49673 1.89857
rclavicle 2.68359e-014 -4.45278e-014
rhumerus -38.0385 -16.4226 -74.7019
rradius 23.671
rwrist 44.302
rhand -30.4433 -15.4303
rfingers 7.12502
rthumb -3.74553 -45.3772
lclavicle 2.68359e-014 -4.45278e-014
lhumerus -22.9898 -17.0786 98.6588
lradius 23.6872
lwrist -16.6587
lhand -39.0726 6.47502
lfingers 7.12502
lthumb -12.0736 36.1067
rfemur -16.3298 -18.8701 26.1842
rtibia 49.9622
rfoot -27.2037 1.53955
rtoes -8.32755
lfemur 8.21734 -1.25883 -0.714156
ltibia 61.7949
lfoot -8.46412 -13.3818
ltoes -10.7627
134
root 4.44289 16.0869 -14.9765 -5.74915 5.74642 -8.2694
lowerback 5.9457 -4.15969 2.45964
upperback 3.92911 -5.45492 7.93045
thorax 1.32125 -2.80962 7.15381
lowerneck -16.745 -2.97603 -5.2766
upperneck 16.2086 -3.62116 4.46327
head 7.94987 -1.60835 1.92447
rclavicle 3.1408e-014 1.11319e-014
rhumerus -36.5393 -15.8033 -76.065
rradius 23.9961
rwrist 43.9652
rhand -30.4713 -15.4688
rfingers 7.12502
rthumb -3.77255 -45.4151
lclavicle 3.1408e-014 1.11319e-014
lhumerus -23.1761 -17.0791 98.4195
lradius 22.7824
lwrist -17.3557
lhand -38.2898 6.55007
lfingers 7.12502
lthumb -11.3188 36.2246
rfemur -15.3959 -18.6675 26.401
rtibia 49.7087
rfoot -27.5894 1.39363
rtoes -8.03341
lfemur 6.33166 -0.557146 -0.0901146
ltibia 64.5553
lfoot -9.83288 -12.8359
ltoes -10.5586
135
root 4.40554 16.0935 -14.8128 -5.94409 5.51152 -8.53534
lowerback 6.00696 -3.87122 2.80212
upperback 4.1342 -5.06156 7.84915
thorax 1.42063 -2.6029 6.85448
lowerneck -16.4162 -3.14182 -5.26526
upperneck 15.5579 -3.87437 4.61693
head 7.69301 -1.71799 1.94431
rclavicle 3.29983e-014 -2.70347e-014
rhumerus -35.2127 -14.9419 -77.4441
rradius 24.4313
rwrist 43.3692
rhand -30.5633 -15.6207
rfingers 7.12502
rthumb -3.86144 -45.5654
lclavicle 3.29983e-014 -2.70347e-014
lhumerus -23.7119 -17.3831 98.2986
lradius 22.0788
lwrist -17.432
lhand -37.8972 6.271
lfingers 7.12502
lthumb -10.9401 35.966
rfemur -14.3094 -18.3812 26.6834
rtibia 49.3569
rfoot -28.1082 1.23678
rtoes -8.07719
lfemur 4.60387 0.0844146 0.44233
ltibia 66.9309
lfoot -11.0969 -12.2822
ltoes -10.7564
136
root 4.36822 16.0851 -14.6596 -6.16539 5.40635 -8.77456
lowerback 6.06957 -3.63037 3.09139
upperback 4.43848 -4.74341 7.76876
thorax 1.64107 -2.43634 6.58634
lowerneck -16.3177 -3.34352 -5.452
upperneck 14.8813 -4.16894 5.07133
head 7.48308 -1.82881 2.08987
rclavicle 2.40529e-014 -1.11319e-014
rhumerus -33.5383 -14.1471 -78.7375
rradius 24.683
rwrist 42.5552
rhand -30.7673 -15.4658
rfingers 7.12502
rthumb -4.05843 -45.4069
lclavicle 2.40529e-014 -1.11319e-014
lhumerus -24.1318 -17.999 98.2339
lradius 21.7539
lwrist -16.3912
lhand -37.5365 6.52181
lfingers 7.12502
lthumb -10.5922 36.2349
rfemur -13.2771 -18.0685 26.9489
rtibia 49.053
rfoot -28.5812 0.978071
rtoes -7.82075
lfemur 2.819 0.650732 1.04999
ltibia 69.0578
lfoot -12.1979 -12.0554
ltoes -10.27
137
root 4.335 16.0774 -14.5054 -6.34033 5.22952 -9.03494
lowerback 6.0304 -3.42361 3.35188
upperback 4.73456 -4.48299 7.7939
thorax 1.93146 -2.30121 6.44465
lowerneck -16.1931 -3.49257 -5.79812
upperneck 14.1603 -4.32156 5.37708
head 7.24924 -1.89674 2.22881
rclavicle -8.54774e-015 -1.59028e-015
rhumerus -31.8143 -13.7258 -79.5491
rradius 24.6721
rwrist 43.4932
rhand -30.9357 -15.4812
rfingers 7.12502
rthumb -4.22102 -45.4191
lclavicle -8.54774e-015 -1.59028e-015
lhumerus -24.5959 -18.1606 98.1989
lradius 21.2101
lwrist -16.8925
lhand -37.7165 7.53655
lfingers 7.12502
lthumb -10.7658 37.2407
rfemur -12.2779 -17.7478 27.2505
rtibia 48.7362
rfoot -29.0142 0.710232
rtoes -7.76765
lfemur 1.07269 1.28596 1.57884
ltibia 70.8134
lfoot -13.2866 -11.6387
ltoes -10.3508
138
root 4.3044 16.0757 -14.35 -6.47243 5.10981 -9.10259
lowerback 5.87409 -3.18537 3.51811
upperback 5.04551 -4.19475 7.6422
thorax 2.29374 -2.14949 6.15929
lowerneck -16.2376 -3.66467 -5.9636
upperneck 13.6665 -4.56482 5.7836
head 7.12462 -1.98603 2.35983
rclavicle 5.08889e-014 -6.67916e-014
rhumerus -30.1005 -11.6879 -81.2383
rradius 25.3125
rwrist 40.9026
rhand -31.1416 -16.0719
rfingers 7.12502
rthumb -4.41989 -46.0058
lclavicle 5.08889e-014 -6.67916e-014
lhumerus -25.2173 -19.2973 98.1681
lradius 21.0245
lwrist -15.7792
lhand -37.8581 7.31149
lfingers 7.12502
lthumb -10.9024 37.0085
rfemur -11.3604 -17.5167 27.3237
rtibia 48.4543
rfoot -29.3789 0.5117
rtoes -8.02012
lfemur -0.64721 1.74325 1.70681
ltibia 72.3151
lfoot -14.5243 -11.0457
ltoes -10.5607
139
root 4.26973 16.0708 -14.197 -6.67352 5.00239 -9.10701
lowerback 5.80638 -2.97591 3.54082
upperback 5.33026 -3.9407 7.46062
thorax 2.59259 -2.01803 5.93328
lowerneck -16.0837 -3.81119 -6.0952
upperneck 13.0511 -4.78815 6.21794
head 6.92755 -2.06686 2.49838
rclavicle -1.0138e-014 -2.70347e-014
rhumerus -28.5569 -10.8427 -82.262
rradius 25.4859
rwrist 41.2236
rhand -31.4258 -16.2284
rfingers 7.12502
rthumb -4.69425 -46.1564
lclavicle -1.0138e-014 -2.70347e-014
lhumerus -26.1099 -20.6883 98.4539
lradius 20.8829
lwrist -14.3076
lhand -38.7182 8.42966
lfingers 7.12502
lthumb -11.7319 38.0811
rfemur -10.3478 -17.3378 27.3341
rtibia 48.1176
rfoot -29.7214 0.318208
rtoes -8.32677
lfemur -2.21273 2.26979 1.81223
ltibia 73.469
lfoot -15.8739 -10.3586
ltoes -10.9346
140
root 4.23627 16.0704 -14.039 -6.89535 4.79563 -9.12116
lowerback 5.66509 -2.67171 3.67287
upperback 5.60075 -3.55893 7.22238
thorax 2.89891 -1.81571 5.57998
lowerneck -15.9711 -4.01403 -6.17486
upperneck 12.5979 -5.09521 6.61064
head 6.79548 -2.18896 2.60535
rclavicle -5.76476e-015 -7.95139e-015
rhumerus -27.1103 -10.1482 -83.3179
rradius 25.8651
rwrist 40.5374
rhand -31.6114 -16.7269
rfingers 7.12502
rthumb -4.87354 -46.6508
lclavicle -5.76476e-015 -7.95139e-015
lhumerus -26.9657 -21.276 98.3155
lradius 20.4971
lwrist -14.5002
lhand -39.029 8.32473
lfingers 7.12502
lthumb -12.0316 37.9589
rfemur -9.24159 -17.1553 27.3501
rtibia 47.6784
rfoot -30.099 0.273619
rtoes -7.67587
lfemur -3.67603 2.76877 1.83827
ltibia 74.3461
lfoot -17.2382 -9.5732
ltoes -10.8636
